<svg width="75" height="71" viewBox="0 0 75 71" fill="none" xmlns="http://www.w3.org/2000/svg">
<rect x="9.5" y="9.5" width="55" height="55" rx="4.5" fill="#161616" stroke="white"/>
<path d="M29.9795 39.8662H25.8008V38.1797H29.9795C30.7887 38.1797 31.444 38.0508 31.9453 37.793C32.4466 37.5352 32.8118 37.1771 33.041 36.7188C33.2773 36.2604 33.3955 35.7376 33.3955 35.1504C33.3955 34.6133 33.2773 34.1084 33.041 33.6357C32.8118 33.1631 32.4466 32.7835 31.9453 32.4971C31.444 32.2035 30.7887 32.0566 29.9795 32.0566H26.2842V46H24.2109V30.3594H29.9795C31.1611 30.3594 32.1602 30.5635 32.9766 30.9717C33.793 31.3799 34.4124 31.9456 34.835 32.6689C35.2575 33.3851 35.4688 34.2051 35.4688 35.1289C35.4688 36.1315 35.2575 36.9873 34.835 37.6963C34.4124 38.4053 33.793 38.946 32.9766 39.3184C32.1602 39.6836 31.1611 39.8662 29.9795 39.8662ZM47.5322 41.0264H49.5947C49.4873 42.0146 49.2044 42.8991 48.7461 43.6797C48.2878 44.4603 47.6396 45.0798 46.8018 45.5381C45.9639 45.9893 44.9183 46.2148 43.665 46.2148C42.7484 46.2148 41.9141 46.043 41.1621 45.6992C40.4173 45.3555 39.7764 44.8685 39.2393 44.2383C38.7021 43.6009 38.2868 42.8382 37.9932 41.9502C37.7067 41.055 37.5635 40.0596 37.5635 38.9639V37.4062C37.5635 36.3105 37.7067 35.3187 37.9932 34.4307C38.2868 33.5355 38.7057 32.7692 39.25 32.1318C39.8014 31.4945 40.4639 31.0039 41.2373 30.6602C42.0107 30.3164 42.8809 30.1445 43.8477 30.1445C45.0293 30.1445 46.0283 30.3665 46.8447 30.8105C47.6611 31.2546 48.2949 31.8704 48.7461 32.6582C49.2044 33.4388 49.4873 34.3447 49.5947 35.376H47.5322C47.432 34.6455 47.2458 34.0189 46.9736 33.4961C46.7015 32.9661 46.3148 32.5579 45.8135 32.2715C45.3122 31.985 44.6569 31.8418 43.8477 31.8418C43.153 31.8418 42.5407 31.9743 42.0107 32.2393C41.488 32.5042 41.0475 32.8802 40.6895 33.3672C40.3385 33.8542 40.0736 34.4378 39.8945 35.1182C39.7155 35.7985 39.626 36.554 39.626 37.3848V38.9639C39.626 39.7301 39.7048 40.4499 39.8623 41.123C40.027 41.7962 40.2741 42.387 40.6035 42.8955C40.9329 43.404 41.3519 43.805 41.8604 44.0986C42.3688 44.3851 42.9704 44.5283 43.665 44.5283C44.5459 44.5283 45.2477 44.3887 45.7705 44.1094C46.2933 43.8301 46.6872 43.429 46.9521 42.9062C47.2243 42.3835 47.4176 41.7568 47.5322 41.0264Z" fill="white"/>
</svg>
