<svg width="783" height="25" viewBox="0 0 783 25" fill="none" xmlns="http://www.w3.org/2000/svg">
<path d="M492 18H781" stroke="#FFCF24"/>
<path d="M288.5 18H103H0" stroke="#FFCF24"/>
<path d="M336.979 12.8672V24H334.721V10.792H336.918L336.979 12.8672ZM341.105 10.7188L341.093 12.8184C340.906 12.7777 340.727 12.7533 340.556 12.7451C340.393 12.7288 340.206 12.7207 339.995 12.7207C339.474 12.7207 339.014 12.8021 338.615 12.9648C338.216 13.1276 337.879 13.3555 337.602 13.6484C337.325 13.9414 337.106 14.2913 336.943 14.6982C336.788 15.097 336.687 15.5365 336.638 16.0166L336.003 16.3828C336.003 15.5853 336.08 14.8366 336.235 14.1367C336.398 13.4368 336.646 12.8184 336.979 12.2812C337.313 11.736 337.736 11.3128 338.249 11.0117C338.77 10.7025 339.388 10.5479 340.104 10.5479C340.267 10.5479 340.454 10.5682 340.666 10.6089C340.878 10.6414 341.024 10.6781 341.105 10.7188ZM348.43 24.2441C347.51 24.2441 346.676 24.0895 345.927 23.7803C345.187 23.4629 344.548 23.0194 344.011 22.4497C343.482 21.88 343.075 21.2046 342.79 20.4233C342.505 19.6421 342.363 18.7876 342.363 17.8599V17.3472C342.363 16.2729 342.521 15.3167 342.839 14.4785C343.156 13.6322 343.588 12.916 344.133 12.3301C344.678 11.7441 345.297 11.3006 345.988 10.9995C346.68 10.6984 347.396 10.5479 348.137 10.5479C349.081 10.5479 349.895 10.7106 350.578 11.0361C351.27 11.3617 351.835 11.8174 352.275 12.4033C352.714 12.9811 353.04 13.6647 353.251 14.4541C353.463 15.2354 353.569 16.0898 353.569 17.0176V18.0308H343.706V16.1875H351.311V16.0166C351.278 15.4307 351.156 14.861 350.944 14.3076C350.741 13.7542 350.415 13.2985 349.968 12.9404C349.52 12.5824 348.91 12.4033 348.137 12.4033C347.624 12.4033 347.152 12.5132 346.721 12.7329C346.289 12.9445 345.919 13.2619 345.61 13.6851C345.301 14.1082 345.061 14.625 344.89 15.2354C344.719 15.8457 344.633 16.5496 344.633 17.3472V17.8599C344.633 18.4865 344.719 19.0765 344.89 19.6299C345.069 20.1751 345.325 20.6553 345.659 21.0703C346 21.4854 346.411 21.8109 346.892 22.0469C347.38 22.2829 347.933 22.4009 348.552 22.4009C349.349 22.4009 350.025 22.2381 350.578 21.9126C351.132 21.5871 351.616 21.1517 352.031 20.6064L353.398 21.6929C353.113 22.1242 352.751 22.5352 352.312 22.9258C351.872 23.3164 351.331 23.6338 350.688 23.8779C350.053 24.1221 349.3 24.2441 348.43 24.2441ZM363.994 21.7417V14.9424C363.994 14.4215 363.888 13.9699 363.676 13.5874C363.473 13.1968 363.164 12.8957 362.749 12.6841C362.333 12.4725 361.821 12.3667 361.21 12.3667C360.641 12.3667 360.14 12.4644 359.709 12.6597C359.286 12.855 358.952 13.1113 358.708 13.4287C358.472 13.7461 358.354 14.0879 358.354 14.4541H356.096C356.096 13.9821 356.218 13.5142 356.462 13.0503C356.706 12.5864 357.056 12.1673 357.512 11.793C357.976 11.4105 358.529 11.1094 359.172 10.8896C359.823 10.6618 360.547 10.5479 361.345 10.5479C362.305 10.5479 363.151 10.7106 363.884 11.0361C364.624 11.3617 365.202 11.854 365.617 12.5132C366.04 13.1642 366.252 13.9821 366.252 14.9668V21.1191C366.252 21.5586 366.289 22.0265 366.362 22.5229C366.443 23.0194 366.561 23.4466 366.716 23.8047V24H364.36C364.246 23.7396 364.156 23.3937 364.091 22.9624C364.026 22.5229 363.994 22.116 363.994 21.7417ZM364.384 15.9922L364.409 17.5791H362.126C361.483 17.5791 360.909 17.632 360.405 17.7378C359.9 17.8354 359.477 17.986 359.135 18.1895C358.793 18.3929 358.533 18.6493 358.354 18.9585C358.175 19.2596 358.085 19.6136 358.085 20.0205C358.085 20.4355 358.179 20.814 358.366 21.1558C358.553 21.4976 358.834 21.7702 359.208 21.9736C359.591 22.1689 360.059 22.2666 360.612 22.2666C361.304 22.2666 361.914 22.1201 362.443 21.8271C362.972 21.5342 363.391 21.1761 363.701 20.7529C364.018 20.3298 364.189 19.9188 364.213 19.52L365.178 20.6064C365.121 20.9482 364.966 21.3267 364.714 21.7417C364.462 22.1567 364.124 22.5555 363.701 22.938C363.286 23.3123 362.789 23.6257 362.211 23.8779C361.642 24.1221 360.999 24.2441 360.283 24.2441C359.388 24.2441 358.602 24.0692 357.927 23.7192C357.259 23.3693 356.739 22.9014 356.364 22.3154C355.998 21.7214 355.815 21.0581 355.815 20.3257C355.815 19.6177 355.953 18.9951 356.23 18.458C356.507 17.9128 356.905 17.4611 357.426 17.103C357.947 16.7368 358.574 16.4601 359.306 16.2729C360.039 16.0858 360.856 15.9922 361.76 15.9922H364.384ZM378.129 21.4365V5.25H380.4V24H378.325L378.129 21.4365ZM369.243 17.5425V17.2861C369.243 16.277 369.365 15.3615 369.609 14.5396C369.861 13.7095 370.215 12.9974 370.671 12.4033C371.135 11.8092 371.684 11.3535 372.319 11.0361C372.962 10.7106 373.678 10.5479 374.467 10.5479C375.297 10.5479 376.022 10.6943 376.64 10.9873C377.267 11.2721 377.796 11.6912 378.227 12.2446C378.667 12.7899 379.012 13.4491 379.265 14.2222C379.517 14.9953 379.692 15.8701 379.79 16.8467V17.9697C379.7 18.9382 379.525 19.8089 379.265 20.582C379.012 21.3551 378.667 22.0143 378.227 22.5596C377.796 23.1048 377.267 23.5239 376.64 23.8169C376.014 24.1017 375.281 24.2441 374.443 24.2441C373.67 24.2441 372.962 24.0773 372.319 23.7437C371.684 23.41 371.135 22.9421 370.671 22.3398C370.215 21.7376 369.861 21.0296 369.609 20.2158C369.365 19.3939 369.243 18.5028 369.243 17.5425ZM371.513 17.2861V17.5425C371.513 18.2017 371.578 18.8201 371.708 19.3979C371.847 19.9757 372.058 20.4844 372.343 20.9238C372.628 21.3633 372.99 21.7091 373.43 21.9614C373.869 22.2056 374.394 22.3276 375.004 22.3276C375.753 22.3276 376.368 22.1689 376.848 21.8516C377.336 21.5342 377.727 21.1151 378.02 20.5942C378.312 20.0734 378.54 19.5078 378.703 18.8975V15.9556C378.605 15.508 378.463 15.0767 378.276 14.6616C378.097 14.2384 377.861 13.8641 377.568 13.5386C377.283 13.2049 376.929 12.9404 376.506 12.7451C376.091 12.5498 375.598 12.4521 375.029 12.4521C374.41 12.4521 373.877 12.5824 373.43 12.8428C372.99 13.0951 372.628 13.445 372.343 13.8926C372.058 14.332 371.847 14.8447 371.708 15.4307C371.578 16.0085 371.513 16.627 371.513 17.2861ZM392.363 13.4165V24H390.092V10.792H392.241L392.363 13.4165ZM391.899 16.8955L390.849 16.8589C390.857 15.9556 390.975 15.1214 391.203 14.3564C391.431 13.5833 391.769 12.9119 392.216 12.3423C392.664 11.7726 393.221 11.3332 393.889 11.0239C394.556 10.7065 395.329 10.5479 396.208 10.5479C396.826 10.5479 397.396 10.6374 397.917 10.8164C398.438 10.9873 398.889 11.2599 399.272 11.6343C399.654 12.0086 399.951 12.4888 400.163 13.0747C400.375 13.6606 400.48 14.3687 400.48 15.1987V24H398.222V15.3086C398.222 14.6169 398.104 14.0635 397.868 13.6484C397.64 13.2334 397.315 12.9323 396.892 12.7451C396.468 12.5498 395.972 12.4521 395.402 12.4521C394.735 12.4521 394.178 12.5701 393.73 12.8062C393.282 13.0422 392.924 13.3677 392.656 13.7827C392.387 14.1978 392.192 14.6738 392.07 15.2109C391.956 15.7399 391.899 16.3014 391.899 16.8955ZM400.456 15.6504L398.942 16.1143C398.951 15.39 399.069 14.6942 399.296 14.0269C399.532 13.3595 399.87 12.7655 400.31 12.2446C400.757 11.7238 401.306 11.3128 401.958 11.0117C402.609 10.7025 403.353 10.5479 404.191 10.5479C404.899 10.5479 405.526 10.6414 406.071 10.8286C406.625 11.0158 407.089 11.3047 407.463 11.6953C407.845 12.0778 408.134 12.5701 408.33 13.1724C408.525 13.7746 408.623 14.4907 408.623 15.3208V24H406.352V15.2964C406.352 14.5558 406.234 13.9821 405.998 13.5752C405.77 13.1602 405.445 12.8713 405.021 12.7085C404.606 12.5376 404.11 12.4521 403.532 12.4521C403.036 12.4521 402.596 12.5376 402.214 12.7085C401.831 12.8794 401.51 13.1154 401.25 13.4165C400.989 13.7095 400.79 14.0472 400.651 14.4297C400.521 14.8122 400.456 15.2191 400.456 15.6504ZM411.442 17.5425V17.2617C411.442 16.3096 411.581 15.4266 411.857 14.6128C412.134 13.7909 412.533 13.0788 413.054 12.4766C413.575 11.8662 414.205 11.3942 414.946 11.0605C415.686 10.7188 416.516 10.5479 417.436 10.5479C418.364 10.5479 419.198 10.7188 419.938 11.0605C420.687 11.3942 421.322 11.8662 421.843 12.4766C422.372 13.0788 422.775 13.7909 423.051 14.6128C423.328 15.4266 423.466 16.3096 423.466 17.2617V17.5425C423.466 18.4946 423.328 19.3776 423.051 20.1914C422.775 21.0052 422.372 21.7173 421.843 22.3276C421.322 22.9299 420.691 23.4019 419.951 23.7437C419.218 24.0773 418.388 24.2441 417.46 24.2441C416.533 24.2441 415.699 24.0773 414.958 23.7437C414.217 23.4019 413.583 22.9299 413.054 22.3276C412.533 21.7173 412.134 21.0052 411.857 20.1914C411.581 19.3776 411.442 18.4946 411.442 17.5425ZM413.701 17.2617V17.5425C413.701 18.2017 413.778 18.8242 413.933 19.4102C414.087 19.988 414.319 20.5007 414.628 20.9482C414.946 21.3958 415.34 21.7498 415.812 22.0103C416.285 22.2625 416.834 22.3887 417.46 22.3887C418.079 22.3887 418.62 22.2625 419.084 22.0103C419.556 21.7498 419.947 21.3958 420.256 20.9482C420.565 20.5007 420.797 19.988 420.952 19.4102C421.114 18.8242 421.196 18.2017 421.196 17.5425V17.2617C421.196 16.6107 421.114 15.9963 420.952 15.4185C420.797 14.8325 420.561 14.3158 420.244 13.8682C419.934 13.4124 419.544 13.0544 419.072 12.7939C418.608 12.5335 418.063 12.4033 417.436 12.4033C416.818 12.4033 416.272 12.5335 415.8 12.7939C415.336 13.0544 414.946 13.4124 414.628 13.8682C414.319 14.3158 414.087 14.8325 413.933 15.4185C413.778 15.9963 413.701 16.6107 413.701 17.2617ZM428.557 12.8672V24H426.298V10.792H428.496L428.557 12.8672ZM432.683 10.7188L432.67 12.8184C432.483 12.7777 432.304 12.7533 432.133 12.7451C431.971 12.7288 431.783 12.7207 431.572 12.7207C431.051 12.7207 430.591 12.8021 430.192 12.9648C429.794 13.1276 429.456 13.3555 429.179 13.6484C428.903 13.9414 428.683 14.2913 428.52 14.6982C428.365 15.097 428.264 15.5365 428.215 16.0166L427.58 16.3828C427.58 15.5853 427.657 14.8366 427.812 14.1367C427.975 13.4368 428.223 12.8184 428.557 12.2812C428.89 11.736 429.313 11.3128 429.826 11.0117C430.347 10.7025 430.965 10.5479 431.682 10.5479C431.844 10.5479 432.032 10.5682 432.243 10.6089C432.455 10.6414 432.601 10.6781 432.683 10.7188ZM440.007 24.2441C439.087 24.2441 438.253 24.0895 437.504 23.7803C436.764 23.4629 436.125 23.0194 435.588 22.4497C435.059 21.88 434.652 21.2046 434.367 20.4233C434.082 19.6421 433.94 18.7876 433.94 17.8599V17.3472C433.94 16.2729 434.099 15.3167 434.416 14.4785C434.733 13.6322 435.165 12.916 435.71 12.3301C436.255 11.7441 436.874 11.3006 437.565 10.9995C438.257 10.6984 438.973 10.5479 439.714 10.5479C440.658 10.5479 441.472 10.7106 442.155 11.0361C442.847 11.3617 443.413 11.8174 443.852 12.4033C444.292 12.9811 444.617 13.6647 444.829 14.4541C445.04 15.2354 445.146 16.0898 445.146 17.0176V18.0308H435.283V16.1875H442.888V16.0166C442.855 15.4307 442.733 14.861 442.521 14.3076C442.318 13.7542 441.993 13.2985 441.545 12.9404C441.097 12.5824 440.487 12.4033 439.714 12.4033C439.201 12.4033 438.729 12.5132 438.298 12.7329C437.867 12.9445 437.496 13.2619 437.187 13.6851C436.878 14.1082 436.638 14.625 436.467 15.2354C436.296 15.8457 436.21 16.5496 436.21 17.3472V17.8599C436.21 18.4865 436.296 19.0765 436.467 19.6299C436.646 20.1751 436.902 20.6553 437.236 21.0703C437.578 21.4854 437.989 21.8109 438.469 22.0469C438.957 22.2829 439.51 22.4009 440.129 22.4009C440.926 22.4009 441.602 22.2381 442.155 21.9126C442.709 21.5871 443.193 21.1517 443.608 20.6064L444.975 21.6929C444.69 22.1242 444.328 22.5352 443.889 22.9258C443.449 23.3164 442.908 23.6338 442.265 23.8779C441.63 24.1221 440.878 24.2441 440.007 24.2441Z" fill="#FFCF24"/>
<path d="M336.979 12.8672H337.979V12.8525L337.979 12.8378L336.979 12.8672ZM336.979 24V25H337.979V24H336.979ZM334.721 24H333.721V25H334.721V24ZM334.721 10.792V9.79199H333.721V10.792H334.721ZM336.918 10.792L337.918 10.7626L337.889 9.79199H336.918V10.792ZM341.105 10.7188L342.105 10.7246L342.109 10.1025L341.553 9.82432L341.105 10.7188ZM341.093 12.8184L340.881 13.7955L342.086 14.0575L342.093 12.8242L341.093 12.8184ZM340.556 12.7451L340.457 13.7402L340.483 13.7427L340.509 13.744L340.556 12.7451ZM336.943 14.6982L336.014 14.3268L336.011 14.3367L336.943 14.6982ZM336.638 16.0166L337.137 16.8828L337.581 16.627L337.633 16.1178L336.638 16.0166ZM336.003 16.3828H335.003V18.1142L336.503 17.249L336.003 16.3828ZM336.235 14.1367L335.261 13.9102L335.258 13.921L336.235 14.1367ZM336.979 12.2812L337.829 12.8089L337.832 12.8032L336.979 12.2812ZM338.249 11.0117L338.755 11.874L338.76 11.8716L338.249 11.0117ZM340.666 10.6089L340.477 11.5909L340.496 11.5944L340.514 11.5973L340.666 10.6089ZM335.979 12.8672V24H337.979V12.8672H335.979ZM336.979 23H334.721V25H336.979V23ZM335.721 24V10.792H333.721V24H335.721ZM334.721 11.792H336.918V9.79199H334.721V11.792ZM335.919 10.8214L335.98 12.8966L337.979 12.8378L337.918 10.7626L335.919 10.8214ZM340.105 10.7129L340.093 12.8125L342.093 12.8242L342.105 10.7246L340.105 10.7129ZM341.306 11.8412C341.071 11.7901 340.836 11.7573 340.604 11.7462L340.509 13.744C340.618 13.7492 340.742 13.7653 340.881 13.7955L341.306 11.8412ZM340.656 11.7501C340.452 11.7297 340.23 11.7207 339.995 11.7207V13.7207C340.182 13.7207 340.335 13.728 340.457 13.7402L340.656 11.7501ZM339.995 11.7207C339.371 11.7207 338.778 11.8182 338.237 12.039L338.993 13.8907C339.25 13.786 339.577 13.7207 339.995 13.7207V11.7207ZM338.237 12.039C337.716 12.2519 337.256 12.5581 336.875 12.9618L338.329 14.3351C338.501 14.1529 338.717 14.0033 338.993 13.8907L338.237 12.039ZM336.875 12.9618C336.505 13.354 336.22 13.8134 336.014 14.3269L337.871 15.0696C337.991 14.7693 338.146 14.5288 338.329 14.3351L336.875 12.9618ZM336.011 14.3367C335.82 14.829 335.7 15.3573 335.643 15.9154L337.633 16.1178C337.673 15.7156 337.757 15.365 337.875 15.0598L336.011 14.3367ZM336.138 15.1504L335.503 15.5166L336.503 17.249L337.137 16.8828L336.138 15.1504ZM337.003 16.3828C337.003 15.6498 337.074 14.9741 337.211 14.3524L335.258 13.921C335.086 14.6991 335.003 15.5208 335.003 16.3828H337.003ZM337.209 14.3632C337.35 13.7556 337.56 13.2414 337.829 12.8089L336.13 11.7536C335.731 12.3953 335.445 13.1181 335.261 13.9102L337.209 14.3632ZM337.832 12.8032C338.087 12.3873 338.395 12.0857 338.755 11.874L337.743 10.1494C337.078 10.54 336.539 11.0847 336.127 11.7593L337.832 12.8032ZM338.76 11.8716C339.1 11.6696 339.535 11.5479 340.104 11.5479V9.54785C339.242 9.54785 338.44 9.73538 337.738 10.1519L338.76 11.8716ZM340.104 11.5479C340.187 11.5479 340.309 11.5586 340.477 11.5909L340.855 9.62688C340.6 9.57781 340.347 9.54785 340.104 9.54785V11.5479ZM340.514 11.5973C340.601 11.6106 340.658 11.6224 340.692 11.6309C340.708 11.635 340.714 11.637 340.711 11.636C340.709 11.6354 340.689 11.6286 340.658 11.6132L341.553 9.82432C341.318 9.70676 341.031 9.6533 340.818 9.62051L340.514 11.5973ZM345.927 23.7803L345.533 24.6995L345.545 24.7045L345.927 23.7803ZM344.011 22.4497L343.278 23.1302L343.283 23.1357L344.011 22.4497ZM342.79 20.4233L341.851 20.7659L342.79 20.4233ZM342.839 14.4785L343.774 14.8326L343.775 14.8296L342.839 14.4785ZM344.133 12.3301L343.401 11.6488L344.133 12.3301ZM350.578 11.0361L350.148 11.939L350.152 11.941L350.578 11.0361ZM352.275 12.4033L351.475 13.0033L351.479 13.0087L352.275 12.4033ZM353.251 14.4541L352.286 14.713L352.286 14.7155L353.251 14.4541ZM353.569 18.0308V19.0308H354.569V18.0308H353.569ZM343.706 18.0308H342.706V19.0308H343.706V18.0308ZM343.706 16.1875V15.1875H342.706V16.1875H343.706ZM351.311 16.1875V17.1875H352.311V16.1875H351.311ZM351.311 16.0166H352.311V15.9888L352.309 15.9611L351.311 16.0166ZM350.944 14.3076L350.006 14.6527L350.01 14.6648L350.944 14.3076ZM346.721 12.7329L347.161 13.6307L347.168 13.6274L347.175 13.624L346.721 12.7329ZM344.89 19.6299L343.934 19.925L343.937 19.9334L343.94 19.9419L344.89 19.6299ZM345.659 21.0703L344.879 21.6969L344.887 21.706L345.659 21.0703ZM346.892 22.0469L346.45 22.9443L346.456 22.9472L346.892 22.0469ZM350.578 21.9126L350.071 21.0507L350.578 21.9126ZM352.031 20.6064L352.653 19.8235L351.853 19.1883L351.235 20.0008L352.031 20.6064ZM353.398 21.6929L354.232 22.2439L354.737 21.4797L354.02 20.91L353.398 21.6929ZM350.688 23.8779L350.333 22.9431L350.329 22.9446L350.688 23.8779ZM348.43 23.2441C347.623 23.2441 346.921 23.1089 346.309 22.856L345.545 24.7045C346.431 25.0701 347.397 25.2441 348.43 25.2441V23.2441ZM346.321 22.8611C345.703 22.5961 345.179 22.2307 344.738 21.7637L343.283 23.1357C343.917 23.8081 344.67 24.3296 345.533 24.6994L346.321 22.8611ZM344.744 21.7693C344.312 21.304 343.972 20.7456 343.73 20.0808L341.851 20.7659C342.178 21.6636 342.652 22.4561 343.278 23.1302L344.744 21.7693ZM343.73 20.0808C343.489 19.4213 343.363 18.6842 343.363 17.8599H341.363C341.363 18.891 341.521 19.8629 341.851 20.7659L343.73 20.0808ZM343.363 17.8599V17.3472H341.363V17.8599H343.363ZM343.363 17.3472C343.363 16.3705 343.507 15.5377 343.774 14.8326L341.904 14.1244C341.536 15.0958 341.363 16.1754 341.363 17.3472H343.363ZM343.775 14.8296C344.053 14.0898 344.419 13.49 344.865 13.0113L343.401 11.6488C342.756 12.342 342.26 13.1745 341.903 14.1274L343.775 14.8296ZM344.865 13.0113C345.322 12.5197 345.829 12.1594 346.387 11.9164L345.589 10.0826C344.764 10.4419 344.034 10.9685 343.401 11.6488L344.865 13.0113ZM346.387 11.9164C346.956 11.6691 347.536 11.5479 348.137 11.5479V9.54785C347.256 9.54785 346.404 9.72775 345.589 10.0826L346.387 11.9164ZM348.137 11.5479C348.968 11.5479 349.628 11.6912 350.148 11.939L351.008 10.1333C350.161 9.73002 349.194 9.54785 348.137 9.54785V11.5479ZM350.152 11.941C350.703 12.2001 351.138 12.5538 351.475 13.0033L353.075 11.8033C352.533 11.081 351.837 10.5232 351.004 10.1313L350.152 11.941ZM351.479 13.0087C351.831 13.4709 352.103 14.0333 352.286 14.713L354.217 14.1952C353.976 13.2961 353.598 12.4913 353.071 11.798L351.479 13.0087ZM352.286 14.7155C352.472 15.4002 352.569 16.1655 352.569 17.0176H354.569C354.569 16.0142 354.454 15.0705 354.217 14.1927L352.286 14.7155ZM352.569 17.0176V18.0308H354.569V17.0176H352.569ZM353.569 17.0308H343.706V19.0308H353.569V17.0308ZM344.706 18.0308V16.1875H342.706V18.0308H344.706ZM343.706 17.1875H351.311V15.1875H343.706V17.1875ZM352.311 16.1875V16.0166H350.311V16.1875H352.311ZM352.309 15.9611C352.271 15.2709 352.127 14.5995 351.878 13.9505L350.01 14.6648C350.185 15.1225 350.285 15.5904 350.312 16.0721L352.309 15.9611ZM351.883 13.9626C351.618 13.2431 351.187 12.6349 350.592 12.1596L349.343 13.7213C349.644 13.9621 349.863 14.2653 350.006 14.6527L351.883 13.9626ZM350.592 12.1596C349.914 11.6171 349.058 11.4033 348.137 11.4033V13.4033C348.762 13.4033 349.126 13.5476 349.343 13.7213L350.592 12.1596ZM348.137 11.4033C347.476 11.4033 346.847 11.5463 346.267 11.8419L347.175 13.624C347.457 13.4801 347.772 13.4033 348.137 13.4033V11.4033ZM346.28 11.8351C345.691 12.1244 345.198 12.5532 344.802 13.095L346.417 14.2751C346.64 13.9705 346.888 13.7646 347.161 13.6307L346.28 11.8351ZM344.802 13.095C344.41 13.6327 344.123 14.2636 343.927 14.9657L345.853 15.505C345.998 14.9864 346.192 14.5838 346.417 14.2751L344.802 13.095ZM343.927 14.9657C343.726 15.683 343.633 16.4808 343.633 17.3472H345.633C345.633 16.6184 345.712 16.0084 345.853 15.505L343.927 14.9657ZM343.633 17.3472V17.8599H345.633V17.3472H343.633ZM343.633 17.8599C343.633 18.5784 343.731 19.2685 343.934 19.925L345.845 19.3348C345.706 18.8845 345.633 18.3946 345.633 17.8599H343.633ZM343.94 19.9419C344.153 20.5925 344.465 21.181 344.879 21.6969L346.438 20.4438C346.185 20.1295 345.984 19.7578 345.84 19.3179L343.94 19.9419ZM344.887 21.706C345.318 22.2303 345.842 22.6453 346.45 22.9443L347.333 21.1494C346.981 20.9765 346.682 20.7404 346.431 20.4346L344.887 21.706ZM346.456 22.9472C347.098 23.2575 347.804 23.4009 348.552 23.4009V21.4009C348.063 21.4009 347.661 21.3083 347.327 21.1465L346.456 22.9472ZM348.552 23.4009C349.485 23.4009 350.345 23.2099 351.085 22.7745L350.071 21.0507C349.705 21.2663 349.214 21.4009 348.552 21.4009V23.4009ZM351.085 22.7745C351.758 22.3788 352.338 21.8537 352.826 21.2121L351.235 20.0008C350.893 20.4497 350.505 20.7953 350.071 21.0507L351.085 22.7745ZM351.409 21.3894L352.776 22.4758L354.02 20.91L352.653 19.8235L351.409 21.3894ZM352.563 21.1418C352.333 21.4914 352.03 21.8377 351.647 22.1784L352.976 23.6732C353.472 23.2326 353.894 22.757 354.232 22.2439L352.563 21.1418ZM351.647 22.1784C351.313 22.4758 350.881 22.7349 350.333 22.9431L351.043 24.8128C351.781 24.5327 352.432 24.157 352.976 23.6732L351.647 22.1784ZM350.329 22.9446C349.836 23.1342 349.211 23.2441 348.43 23.2441V25.2441C349.39 25.2441 350.271 25.1099 351.047 24.8113L350.329 22.9446ZM363.676 13.5874L362.789 14.0493L362.795 14.0605L362.801 14.0715L363.676 13.5874ZM359.709 12.6597L359.296 11.7487L359.29 11.7517L359.709 12.6597ZM358.708 13.4287L357.915 12.819L357.91 12.8255L357.906 12.832L358.708 13.4287ZM358.354 14.4541V15.4541H359.354V14.4541H358.354ZM356.096 14.4541H355.096V15.4541H356.096V14.4541ZM357.512 11.793L358.146 12.5657L358.148 12.5645L357.512 11.793ZM359.172 10.8896L359.495 11.8359L359.502 11.8335L359.172 10.8896ZM363.884 11.0361L363.478 11.95L363.481 11.9516L363.884 11.0361ZM365.617 12.5132L364.771 13.046L364.775 13.0521L364.779 13.0582L365.617 12.5132ZM366.362 22.5229L365.373 22.6689L365.374 22.6768L365.375 22.6847L366.362 22.5229ZM366.716 23.8047H367.716V23.598L367.634 23.4083L366.716 23.8047ZM366.716 24V25H367.716V24H366.716ZM364.36 24L363.444 24.4008L363.706 25H364.36V24ZM364.091 22.9624L363.102 23.109L363.103 23.1117L364.091 22.9624ZM364.384 15.9922L365.384 15.9768L365.369 14.9922H364.384V15.9922ZM364.409 17.5791V18.5791H365.424L365.409 17.5637L364.409 17.5791ZM360.405 17.7378L360.595 18.7196L360.602 18.7181L360.61 18.7165L360.405 17.7378ZM358.354 18.9585L359.214 19.4696L359.219 19.4595L358.354 18.9585ZM358.366 21.1558L359.243 20.6754L358.366 21.1558ZM359.208 21.9736L358.731 22.8523L358.742 22.8584L358.754 22.8642L359.208 21.9736ZM362.443 21.8271L361.959 20.9524L362.443 21.8271ZM363.701 20.7529L362.901 20.1529L362.893 20.1629L363.701 20.7529ZM364.213 19.52L364.961 18.8562L363.362 17.055L363.215 19.4589L364.213 19.52ZM365.178 20.6064L366.164 20.7708L366.243 20.2998L365.926 19.9426L365.178 20.6064ZM363.701 22.938L364.37 23.6806L364.371 23.6799L363.701 22.938ZM362.211 23.8779L362.605 24.7971L362.612 24.7944L362.211 23.8779ZM357.927 23.7192L357.462 24.6049L357.467 24.6072L357.927 23.7192ZM356.364 22.3154L355.513 22.8402L355.517 22.847L355.522 22.8538L356.364 22.3154ZM356.23 18.458L357.119 18.916L357.122 18.9105L356.23 18.458ZM357.426 17.103L357.993 17.9271L358.001 17.9211L357.426 17.103ZM364.994 21.7417V14.9424H362.994V21.7417H364.994ZM364.994 14.9424C364.994 14.2846 364.859 13.66 364.551 13.1033L362.801 14.0715C362.916 14.2798 362.994 14.5585 362.994 14.9424H364.994ZM364.563 13.1255C364.258 12.5393 363.792 12.0935 363.203 11.7932L362.294 13.575C362.535 13.6979 362.688 13.8542 362.789 14.0493L364.563 13.1255ZM363.203 11.7932C362.61 11.4912 361.932 11.3667 361.21 11.3667V13.3667C361.71 13.3667 362.057 13.4538 362.294 13.575L363.203 11.7932ZM361.21 11.3667C360.527 11.3667 359.881 11.484 359.296 11.7487L360.121 13.5706C360.4 13.4447 360.755 13.3667 361.21 13.3667V11.3667ZM359.29 11.7517C358.744 12.0036 358.273 12.3539 357.915 12.819L359.501 14.0384C359.631 13.8687 359.828 13.7063 360.128 13.5676L359.29 11.7517ZM357.906 12.832C357.552 13.3073 357.354 13.8554 357.354 14.4541H359.354C359.354 14.3204 359.392 14.1849 359.51 14.0254L357.906 12.832ZM358.354 13.4541H356.096V15.4541H358.354V13.4541ZM357.096 14.4541C357.096 14.1617 357.17 13.8524 357.347 13.516L355.577 12.5845C355.266 13.1759 355.096 13.8025 355.096 14.4541H357.096ZM357.347 13.516C357.522 13.184 357.781 12.866 358.146 12.5657L356.877 11.0202C356.331 11.4686 355.891 11.9888 355.577 12.5845L357.347 13.516ZM358.148 12.5645C358.508 12.2679 358.952 12.0217 359.495 11.8359L358.848 9.94339C358.106 10.197 357.444 10.5531 356.876 11.0214L358.148 12.5645ZM359.502 11.8335C360.032 11.6481 360.642 11.5479 361.345 11.5479V9.54785C360.452 9.54785 359.614 9.67546 358.842 9.94579L359.502 11.8335ZM361.345 11.5479C362.192 11.5479 362.896 11.6914 363.478 11.9499L364.29 10.1223C363.407 9.72987 362.418 9.54785 361.345 9.54785V11.5479ZM363.481 11.9516C364.047 12.2 364.467 12.5626 364.771 13.046L366.463 11.9804C365.938 11.1454 365.202 10.5233 364.286 10.1207L363.481 11.9516ZM364.779 13.0582C365.072 13.5086 365.252 14.124 365.252 14.9668H367.252C367.252 13.8402 367.009 12.8199 366.456 11.9682L364.779 13.0582ZM365.252 14.9668V21.1191H367.252V14.9668H365.252ZM365.252 21.1191C365.252 21.6137 365.293 22.1308 365.373 22.6689L367.351 22.377C367.284 21.9223 367.252 21.5035 367.252 21.1191H365.252ZM365.375 22.6847C365.466 23.2399 365.603 23.7499 365.798 24.2011L367.634 23.4083C367.519 23.1433 367.42 22.7988 367.349 22.3612L365.375 22.6847ZM365.716 23.8047V24H367.716V23.8047H365.716ZM366.716 23H364.36V25H366.716V23ZM365.276 23.5992C365.211 23.4498 365.138 23.1987 365.08 22.8132L363.103 23.1117C363.175 23.5887 363.281 24.0294 363.444 24.4008L365.276 23.5992ZM365.081 22.8159C365.021 22.4162 364.994 22.0589 364.994 21.7417H362.994C362.994 22.1731 363.031 22.6297 363.102 23.109L365.081 22.8159ZM363.384 16.0076L363.409 17.5945L365.409 17.5637L365.384 15.9768L363.384 16.0076ZM364.409 16.5791H362.126V18.5791H364.409V16.5791ZM362.126 16.5791C361.43 16.5791 360.786 16.6362 360.2 16.7591L360.61 18.7165C361.033 18.6278 361.536 18.5791 362.126 18.5791V16.5791ZM360.215 16.756C359.628 16.8695 359.089 17.0532 358.624 17.3302L359.647 19.0487C359.865 18.9188 360.172 18.8014 360.595 18.7196L360.215 16.756ZM358.624 17.3302C358.152 17.6108 357.762 17.9844 357.489 18.4575L359.219 19.4595C359.304 19.3141 359.435 19.175 359.647 19.0487L358.624 17.3302ZM357.494 18.4474C357.21 18.9266 357.085 19.4632 357.085 20.0205H359.085C359.085 19.764 359.14 19.5926 359.214 19.4696L357.494 18.4474ZM357.085 20.0205C357.085 20.5922 357.216 21.1375 357.489 21.6361L359.243 20.6754C359.142 20.4905 359.085 20.2789 359.085 20.0205H357.085ZM357.489 21.6361C357.777 22.1619 358.204 22.566 358.731 22.8523L359.686 21.095C359.464 20.9743 359.33 20.8333 359.243 20.6754L357.489 21.6361ZM358.754 22.8642C359.312 23.1492 359.945 23.2666 360.612 23.2666V21.2666C360.173 21.2666 359.87 21.1887 359.663 21.083L358.754 22.8642ZM360.612 23.2666C361.449 23.2666 362.23 23.0882 362.928 22.7019L361.959 20.9524C361.598 21.152 361.159 21.2666 360.612 21.2666V23.2666ZM362.928 22.7019C363.564 22.3494 364.101 21.9001 364.508 21.3429L362.893 20.1629C362.682 20.4521 362.38 20.719 361.959 20.9524L362.928 22.7019ZM364.501 21.3529C364.898 20.8231 365.172 20.229 365.212 19.5811L363.215 19.4589C363.206 19.6086 363.138 19.8364 362.901 20.1529L364.501 21.3529ZM363.466 20.1839L364.43 21.2703L365.926 19.9426L364.961 18.8562L363.466 20.1839ZM364.191 20.442C364.162 20.6186 364.07 20.8756 363.859 21.2223L365.568 22.2611C365.862 21.7778 366.08 21.2779 366.164 20.7708L364.191 20.442ZM363.859 21.2223C363.665 21.5417 363.394 21.8675 363.03 22.1961L364.371 23.6799C364.854 23.2435 365.258 22.7717 365.568 22.2611L363.859 21.2223ZM363.031 22.1954C362.705 22.4891 362.303 22.7468 361.811 22.9615L362.612 24.7944C363.276 24.5045 363.866 24.1356 364.37 23.6806L363.031 22.1954ZM361.818 22.9588C361.39 23.1419 360.884 23.2441 360.283 23.2441V25.2441C361.113 25.2441 361.893 25.1022 362.605 24.7971L361.818 22.9588ZM360.283 23.2441C359.519 23.2441 358.897 23.0956 358.387 22.8313L357.467 24.6072C358.307 25.0427 359.256 25.2441 360.283 25.2441V23.2441ZM358.391 22.8336C357.865 22.5576 357.48 22.2041 357.207 21.777L355.522 22.8538C355.997 23.5986 356.654 24.1811 357.462 24.6049L358.391 22.8336ZM357.216 21.7907C356.951 21.3623 356.815 20.8824 356.815 20.3257H354.815C354.815 21.2338 355.045 22.0804 355.513 22.8402L357.216 21.7907ZM356.815 20.3257C356.815 19.7496 356.927 19.289 357.119 18.916L355.341 18.0001C354.98 18.7013 354.815 19.4857 354.815 20.3257H356.815ZM357.122 18.9105C357.32 18.5195 357.605 18.1938 357.993 17.9271L356.86 16.279C356.206 16.7284 355.693 17.306 355.338 18.0055L357.122 18.9105ZM358.001 17.9211C358.406 17.6363 358.917 17.4045 359.554 17.2418L359.059 15.3041C358.23 15.5158 357.488 15.8374 356.851 16.285L358.001 17.9211ZM359.554 17.2418C360.191 17.0789 360.924 16.9922 361.76 16.9922V14.9922C360.789 14.9922 359.886 15.0927 359.059 15.3041L359.554 17.2418ZM361.76 16.9922H364.384V14.9922H361.76V16.9922ZM378.129 21.4365H377.129V21.4746L377.132 21.5125L378.129 21.4365ZM378.129 5.25V4.25H377.129V5.25H378.129ZM380.4 5.25H381.4V4.25H380.4V5.25ZM380.4 24V25H381.4V24H380.4ZM378.325 24L377.328 24.076L377.398 25H378.325V24ZM369.609 14.5396L368.652 14.2488L368.65 14.2548L369.609 14.5396ZM370.671 12.4033L369.883 11.7879L369.877 11.7947L370.671 12.4033ZM372.319 11.0361L372.766 11.9306L372.771 11.9283L372.319 11.0361ZM376.64 10.9873L376.212 11.891L376.219 11.8944L376.226 11.8977L376.64 10.9873ZM378.227 12.2446L377.438 12.8594L377.443 12.8658L377.448 12.8722L378.227 12.2446ZM379.79 16.8467H380.79V16.7968L380.785 16.7472L379.79 16.8467ZM379.79 17.9697L380.785 18.0618L380.79 18.0158V17.9697H379.79ZM379.265 20.582L378.317 20.2628L378.314 20.2718L379.265 20.582ZM378.227 22.5596L377.448 21.932L377.443 21.9392L378.227 22.5596ZM376.64 23.8169L377.054 24.7273L377.064 24.7228L376.64 23.8169ZM372.319 23.7437L371.854 24.6288L371.858 24.6312L372.319 23.7437ZM370.671 22.3398L369.873 22.9433L369.879 22.9501L370.671 22.3398ZM369.609 20.2158L368.65 20.5006L368.654 20.5119L369.609 20.2158ZM371.708 19.3979L370.733 19.6178L370.736 19.6308L371.708 19.3979ZM372.343 20.9238L373.182 20.3799L372.343 20.9238ZM373.43 21.9614L372.932 22.8288L372.944 22.8356L373.43 21.9614ZM376.848 21.8516L376.303 21.0131L376.296 21.0173L376.848 21.8516ZM378.703 18.8975L379.669 19.1551L379.703 19.0285V18.8975H378.703ZM378.703 15.9556H379.703V15.8477L379.68 15.7424L378.703 15.9556ZM378.276 14.6616L377.355 15.0513L377.359 15.062L377.364 15.0727L378.276 14.6616ZM377.568 13.5386L376.807 14.1878L376.816 14.1978L376.825 14.2075L377.568 13.5386ZM376.506 12.7451L376.08 13.65L376.087 13.6531L376.506 12.7451ZM373.43 12.8428L373.928 13.71L373.933 13.7071L373.43 12.8428ZM372.343 13.8926L373.182 14.4365L373.187 14.4295L372.343 13.8926ZM371.708 15.4307L370.735 15.2009L370.733 15.2108L371.708 15.4307ZM379.129 21.4365V5.25H377.129V21.4365H379.129ZM378.129 6.25H380.4V4.25H378.129V6.25ZM379.4 5.25V24H381.4V5.25H379.4ZM380.4 23H378.325V25H380.4V23ZM379.322 23.924L379.127 21.3606L377.132 21.5125L377.328 24.076L379.322 23.924ZM370.243 17.5425V17.2861H368.243V17.5425H370.243ZM370.243 17.2861C370.243 16.3569 370.355 15.5392 370.567 14.8243L368.65 14.2548C368.374 15.1838 368.243 16.1972 368.243 17.2861H370.243ZM370.566 14.8303C370.788 14.0972 371.092 13.4969 371.464 13.012L369.877 11.7947C369.338 12.4979 368.934 13.3217 368.652 14.2488L370.566 14.8303ZM371.459 13.0188C371.837 12.5344 372.272 12.1774 372.766 11.9306L371.872 10.1417C371.096 10.5297 370.432 11.0841 369.883 11.7879L371.459 13.0188ZM372.771 11.9283C373.26 11.6802 373.82 11.5479 374.467 11.5479V9.54785C373.536 9.54785 372.663 9.74098 371.867 10.144L372.771 11.9283ZM374.467 11.5479C375.18 11.5479 375.753 11.6735 376.212 11.891L377.068 10.0836C376.29 9.71517 375.414 9.54785 374.467 9.54785V11.5479ZM376.226 11.8977C376.703 12.1143 377.104 12.4308 377.438 12.8594L379.016 11.6299C378.487 10.9517 377.831 10.4299 377.054 10.0769L376.226 11.8977ZM377.448 12.8722C377.801 13.309 378.093 13.8563 378.314 14.5324L380.215 13.912C379.931 13.0418 379.532 12.2707 379.006 11.6171L377.448 12.8722ZM378.314 14.5324C378.54 15.2247 378.703 16.0271 378.795 16.9462L380.785 16.7472C380.681 15.7132 380.494 14.7658 380.215 13.912L378.314 14.5324ZM378.79 16.8467V17.9697H380.79V16.8467H378.79ZM378.794 17.8777C378.71 18.7831 378.548 19.5758 378.317 20.2628L380.212 20.9013C380.502 20.0421 380.69 19.0932 380.785 18.0618L378.794 17.8777ZM378.314 20.2718C378.093 20.9479 377.801 21.4952 377.448 21.932L379.006 23.1871C379.532 22.5335 379.931 21.7624 380.215 20.8922L378.314 20.2718ZM377.443 21.9392C377.107 22.3632 376.702 22.6842 376.217 22.911L377.064 24.7228C377.832 24.3636 378.484 23.8465 379.011 23.18L377.443 21.9392ZM376.226 22.9065C375.755 23.1209 375.169 23.2441 374.443 23.2441V25.2441C375.393 25.2441 376.272 25.0826 377.054 24.7273L376.226 22.9065ZM374.443 23.2441C373.819 23.2441 373.271 23.1109 372.779 22.8561L371.858 24.6312C372.653 25.0437 373.521 25.2441 374.443 25.2441V23.2441ZM372.784 22.8585C372.284 22.5958 371.844 22.2247 371.463 21.7296L369.879 22.9501C370.425 23.6594 371.084 24.2241 371.854 24.6288L372.784 22.8585ZM371.468 21.7364C371.091 21.2378 370.786 20.6368 370.564 19.9197L368.654 20.5119C368.936 21.4225 369.339 22.2375 369.873 22.9433L371.468 21.7364ZM370.567 19.9311C370.354 19.2119 370.243 18.4178 370.243 17.5425H368.243C368.243 18.5878 368.376 19.5759 368.65 20.5006L370.567 19.9311ZM370.513 17.2861V17.5425H372.513V17.2861H370.513ZM370.513 17.5425C370.513 18.2674 370.585 18.9603 370.733 19.6178L372.684 19.1781C372.572 18.68 372.513 18.1359 372.513 17.5425H370.513ZM370.736 19.6308C370.897 20.3044 371.15 20.921 371.504 21.4677L373.182 20.3799C372.967 20.0477 372.796 19.6471 372.681 19.1651L370.736 19.6308ZM371.504 21.4677C371.872 22.0359 372.35 22.4946 372.932 22.8287L373.928 21.0942C373.631 20.9237 373.384 20.6906 373.182 20.3799L371.504 21.4677ZM372.944 22.8356C373.561 23.1782 374.26 23.3276 375.004 23.3276V21.3276C374.528 21.3276 374.178 21.2329 373.915 21.0873L372.944 22.8356ZM375.004 23.3276C375.891 23.3276 376.713 23.1395 377.399 22.6858L376.296 21.0173C376.022 21.1984 375.615 21.3276 375.004 21.3276V23.3276ZM377.393 22.69C378.02 22.2823 378.521 21.7422 378.891 21.0845L377.148 20.104C376.932 20.4879 376.652 20.7861 376.303 21.0131L377.393 22.69ZM378.891 21.0845C379.228 20.4864 379.486 19.8421 379.669 19.1551L377.737 18.6398C377.595 19.1736 377.397 19.6604 377.148 20.104L378.891 21.0845ZM379.703 18.8975V15.9556H377.703V18.8975H379.703ZM379.68 15.7424C379.568 15.2272 379.403 14.7295 379.187 14.2505L377.364 15.0727C377.523 15.4239 377.643 15.7888 377.726 16.1687L379.68 15.7424ZM379.197 14.272C378.977 13.7515 378.682 13.2817 378.311 12.8696L376.825 14.2075C377.04 14.4465 377.217 14.7253 377.355 15.0513L379.197 14.272ZM378.328 12.8893C377.944 12.439 377.471 12.0892 376.925 11.8372L376.087 13.6531C376.387 13.7917 376.622 13.9709 376.807 14.1878L378.328 12.8893ZM376.932 11.8403C376.355 11.569 375.711 11.4521 375.029 11.4521V13.4521C375.486 13.4521 375.826 13.5306 376.08 13.6499L376.932 11.8403ZM375.029 11.4521C374.268 11.4521 373.554 11.6133 372.927 11.9784L373.933 13.7071C374.2 13.5514 374.553 13.4521 375.029 13.4521V11.4521ZM372.932 11.9755C372.345 12.3122 371.867 12.7783 371.5 13.3557L373.187 14.4295C373.389 14.1117 373.635 13.8779 373.928 13.71L372.932 11.9755ZM371.504 13.3487C371.148 13.8976 370.896 14.5198 370.735 15.2009L372.682 15.6605C372.798 15.1697 372.969 14.7665 373.182 14.4365L371.504 13.3487ZM370.733 15.2108C370.585 15.8684 370.513 16.5612 370.513 17.2861H372.513C372.513 16.6927 372.572 16.1486 372.684 15.6505L370.733 15.2108ZM392.363 13.4165H393.363V13.3933L393.362 13.37L392.363 13.4165ZM392.363 24V25H393.363V24H392.363ZM390.092 24H389.092V25H390.092V24ZM390.092 10.792V9.79199H389.092V10.792H390.092ZM392.241 10.792L393.24 10.7455L393.195 9.79199H392.241V10.792ZM391.899 16.8955L391.864 17.8949L392.899 17.931V16.8955H391.899ZM390.849 16.8589L389.849 16.8499L389.84 17.8243L390.814 17.8583L390.849 16.8589ZM391.203 14.3564L392.162 14.6419L392.162 14.6392L391.203 14.3564ZM392.216 12.3423L391.43 11.7245L392.216 12.3423ZM393.889 11.0239L394.309 11.9313L394.318 11.927L393.889 11.0239ZM397.917 10.8164L397.592 11.7622L397.605 11.7666L397.917 10.8164ZM399.272 11.6343L398.573 12.3489L399.272 11.6343ZM400.48 24V25H401.48V24H400.48ZM398.222 24H397.222V25H398.222V24ZM397.868 13.6484L396.992 14.1297L396.995 14.1362L396.999 14.1427L397.868 13.6484ZM396.892 12.7451L396.473 13.6531L396.48 13.6564L396.487 13.6597L396.892 12.7451ZM392.07 15.2109L391.095 14.9893L391.092 15.0004L392.07 15.2109ZM400.456 15.6504L400.749 16.6065L401.456 16.3898V15.6504H400.456ZM398.942 16.1143L397.942 16.103L397.927 17.4713L399.235 17.0704L398.942 16.1143ZM399.296 14.0269L398.354 13.6934L398.35 13.7037L399.296 14.0269ZM400.31 12.2446L399.551 11.5928L399.545 11.5998L400.31 12.2446ZM401.958 11.0117L402.377 11.9194L402.387 11.915L401.958 11.0117ZM406.071 10.8286L405.747 11.7744L405.751 11.7759L406.071 10.8286ZM407.463 11.6953L406.741 12.3872L406.748 12.3949L406.756 12.4024L407.463 11.6953ZM408.623 24V25H409.623V24H408.623ZM406.352 24H405.352V25H406.352V24ZM405.998 13.5752L405.121 14.0565L405.127 14.0668L405.133 14.0769L405.998 13.5752ZM405.021 12.7085L404.641 13.6332L404.652 13.6376L404.663 13.6418L405.021 12.7085ZM401.25 13.4165L401.997 14.0809L402.006 14.0707L401.25 13.4165ZM400.651 14.4297L399.711 14.0896L399.708 14.0985L399.705 14.1074L400.651 14.4297ZM391.363 13.4165V24H393.363V13.4165H391.363ZM392.363 23H390.092V25H392.363V23ZM391.092 24V10.792H389.092V24H391.092ZM390.092 11.792H392.241V9.79199H390.092V11.792ZM391.242 10.8385L391.364 13.463L393.362 13.37L393.24 10.7455L391.242 10.8385ZM391.934 15.8961L390.884 15.8595L390.814 17.8583L391.864 17.8949L391.934 15.8961ZM391.849 16.8679C391.856 16.0461 391.964 15.3062 392.162 14.6419L390.245 14.071C389.987 14.9366 389.858 15.865 389.849 16.8499L391.849 16.8679ZM392.162 14.6392C392.358 13.974 392.642 13.4194 393.003 12.9601L391.43 11.7245C390.896 12.4045 390.504 13.1926 390.244 14.0737L392.162 14.6392ZM393.003 12.9601C393.351 12.5164 393.783 12.1752 394.309 11.9312L393.468 10.1166C392.66 10.4911 391.977 11.0289 391.43 11.7245L393.003 12.9601ZM394.318 11.927C394.828 11.6844 395.45 11.5479 396.208 11.5479V9.54785C395.208 9.54785 394.284 9.72869 393.459 10.1209L394.318 11.927ZM396.208 11.5479C396.729 11.5479 397.188 11.6231 397.592 11.7621L398.242 9.87072C397.605 9.65159 396.924 9.54785 396.208 9.54785V11.5479ZM397.605 11.7666C397.984 11.8909 398.302 12.0844 398.573 12.3489L399.971 10.9196C399.477 10.4355 398.892 10.0837 398.229 9.86625L397.605 11.7666ZM398.573 12.3489C398.831 12.6021 399.054 12.9468 399.223 13.4144L401.104 12.7351C400.849 12.0307 400.478 11.4152 399.971 10.9196L398.573 12.3489ZM399.223 13.4144C399.384 13.8619 399.48 14.4483 399.48 15.1987H401.48C401.48 14.289 401.365 13.4594 401.104 12.7351L399.223 13.4144ZM399.48 15.1987V24H401.48V15.1987H399.48ZM400.48 23H398.222V25H400.48V23ZM399.222 24V15.3086H397.222V24H399.222ZM399.222 15.3086C399.222 14.5164 399.089 13.7726 398.737 13.1541L396.999 14.1427C397.119 14.3544 397.222 14.7173 397.222 15.3086H399.222ZM398.745 13.1672C398.414 12.5647 397.925 12.1087 397.296 11.8306L396.487 13.6597C396.705 13.7559 396.867 13.9021 396.992 14.1297L398.745 13.1672ZM397.311 11.8372C396.73 11.5693 396.085 11.4521 395.402 11.4521V13.4521C395.859 13.4521 396.207 13.5303 396.473 13.6531L397.311 11.8372ZM395.402 11.4521C394.622 11.4521 393.893 11.5895 393.264 11.9216L394.196 13.6907C394.462 13.5508 394.848 13.4521 395.402 13.4521V11.4521ZM393.264 11.9216C392.668 12.2355 392.18 12.6771 391.816 13.2395L393.495 14.326C393.669 14.0583 393.897 13.8488 394.196 13.6907L393.264 11.9216ZM391.816 13.2395C391.477 13.7635 391.24 14.3509 391.095 14.9893L393.045 15.4326C393.144 14.9968 393.297 14.632 393.495 14.326L391.816 13.2395ZM391.092 15.0004C390.962 15.6049 390.899 16.2375 390.899 16.8955H392.899C392.899 16.3654 392.95 15.8749 393.047 15.4215L391.092 15.0004ZM400.163 14.6943L398.649 15.1581L399.235 17.0704L400.749 16.6065L400.163 14.6943ZM399.942 16.1255C399.949 15.5044 400.05 14.9141 400.243 14.35L398.35 13.7037C398.087 14.4742 397.952 15.2755 397.942 16.103L399.942 16.1255ZM400.239 14.3603C400.437 13.8022 400.715 13.3146 401.074 12.8895L399.545 11.5998C399.025 12.2163 398.628 12.9168 398.354 13.6934L400.239 14.3603ZM401.068 12.8964C401.418 12.4889 401.85 12.1631 402.377 11.9193L401.538 10.1041C400.763 10.4625 400.096 10.9587 399.551 11.5929L401.068 12.8964ZM402.387 11.915C402.883 11.679 403.478 11.5479 404.191 11.5479V9.54785C403.229 9.54785 402.334 9.72593 401.528 10.1084L402.387 11.915ZM404.191 11.5479C404.813 11.5479 405.327 11.6302 405.747 11.7744L406.396 9.88279C405.726 9.65263 404.986 9.54785 404.191 9.54785V11.5479ZM405.751 11.7759C406.164 11.9157 406.487 12.1219 406.741 12.3872L408.185 11.0034C407.69 10.4874 407.085 10.1159 406.392 9.88133L405.751 11.7759ZM406.756 12.4024C407.009 12.6556 407.224 13.0034 407.378 13.4809L409.281 12.8639C409.045 12.1369 408.682 11.5 408.17 10.9882L406.756 12.4024ZM407.378 13.4809C407.533 13.9579 407.623 14.5648 407.623 15.3208H409.623C409.623 14.4166 409.517 13.5912 409.281 12.8639L407.378 13.4809ZM407.623 15.3208V24H409.623V15.3208H407.623ZM408.623 23H406.352V25H408.623V23ZM407.352 24V15.2964H405.352V24H407.352ZM407.352 15.2964C407.352 14.4716 407.224 13.6964 406.863 13.0735L405.133 14.0769C405.244 14.2678 405.352 14.6401 405.352 15.2964H407.352ZM406.875 13.0939C406.539 12.4818 406.035 12.0267 405.38 11.7752L404.663 13.6418C404.855 13.7158 405.002 13.8386 405.121 14.0565L406.875 13.0939ZM405.402 11.7838C404.837 11.5511 404.205 11.4521 403.532 11.4521V13.4521C404.015 13.4521 404.376 13.5241 404.641 13.6332L405.402 11.7838ZM403.532 11.4521C402.921 11.4521 402.338 11.5576 401.806 11.7955L402.622 13.6215C402.854 13.5176 403.151 13.4521 403.532 13.4521V11.4521ZM401.806 11.7955C401.297 12.0229 400.854 12.3447 400.493 12.7624L402.006 14.0707C402.166 13.8861 402.366 13.7359 402.622 13.6215L401.806 11.7955ZM400.502 12.7521C400.154 13.1435 399.891 13.5923 399.711 14.0896L401.592 14.7698C401.689 14.5021 401.824 14.2754 401.997 14.0809L400.502 12.7521ZM399.705 14.1074C399.537 14.6005 399.456 15.1169 399.456 15.6504H401.456C401.456 15.3213 401.505 15.0239 401.598 14.752L399.705 14.1074ZM411.857 14.6128L412.804 14.9347L412.805 14.9318L411.857 14.6128ZM413.054 12.4766L413.81 13.1307L413.814 13.1257L413.054 12.4766ZM414.946 11.0605L415.357 11.9723L415.365 11.9685L414.946 11.0605ZM419.938 11.0605L419.519 11.9686L419.531 11.9739L419.938 11.0605ZM421.843 12.4766L421.082 13.1257L421.087 13.1311L421.091 13.1365L421.843 12.4766ZM423.051 14.6128L422.104 14.9318L422.104 14.9347L423.051 14.6128ZM423.051 20.1914L422.104 19.8695L423.051 20.1914ZM421.843 22.3276L421.087 21.6727L421.086 21.6735L421.843 22.3276ZM419.951 23.7437L420.365 24.6537L420.37 24.6516L419.951 23.7437ZM414.958 23.7437L414.539 24.6516L414.547 24.6554L414.958 23.7437ZM413.054 22.3276L412.293 22.9768L412.298 22.9822L412.302 22.9876L413.054 22.3276ZM413.933 19.4102L412.966 19.6653L412.967 19.6687L413.933 19.4102ZM414.628 20.9482L413.806 21.5167L413.813 21.5267L414.628 20.9482ZM415.812 22.0103L415.329 22.8859L415.341 22.8922L415.812 22.0103ZM419.084 22.0103L419.562 22.8888L419.567 22.8858L419.084 22.0103ZM420.952 19.4102L419.988 19.1425L419.986 19.1516L420.952 19.4102ZM420.952 15.4185L419.985 15.6736L419.987 15.6816L419.989 15.6896L420.952 15.4185ZM420.244 13.8682L419.416 14.4297L419.422 14.4382L419.428 14.4466L420.244 13.8682ZM419.072 12.7939L418.582 13.666L418.589 13.6695L419.072 12.7939ZM415.8 12.7939L415.317 11.9183L415.311 11.922L415.8 12.7939ZM414.628 13.8682L413.808 13.2967L413.806 13.2997L414.628 13.8682ZM413.933 15.4185L414.899 15.677L414.9 15.6736L413.933 15.4185ZM412.442 17.5425V17.2617H410.442V17.5425H412.442ZM412.442 17.2617C412.442 16.4073 412.566 15.6343 412.804 14.9347L410.911 14.2909C410.595 15.2189 410.442 16.2118 410.442 17.2617H412.442ZM412.805 14.9318C413.044 14.2219 413.381 13.6263 413.81 13.1307L412.297 11.8224C411.684 12.5313 411.224 13.3598 410.91 14.2938L412.805 14.9318ZM413.814 13.1257C414.238 12.629 414.749 12.2461 415.357 11.9723L414.535 10.1488C413.662 10.5423 412.911 11.1034 412.293 11.8274L413.814 13.1257ZM415.365 11.9685C415.958 11.6946 416.643 11.5479 417.436 11.5479V9.54785C416.39 9.54785 415.415 9.74285 414.527 10.1526L415.365 11.9685ZM417.436 11.5479C418.239 11.5479 418.927 11.6952 419.519 11.9685L420.358 10.1526C419.469 9.74233 418.489 9.54785 417.436 9.54785V11.5479ZM419.531 11.9739C420.147 12.2483 420.66 12.6312 421.082 13.1257L422.603 11.8274C421.984 11.1013 421.227 10.5401 420.346 10.1471L419.531 11.9739ZM421.091 13.1365C421.526 13.6313 421.866 14.225 422.104 14.9318L423.999 14.2938C423.684 13.3567 423.217 12.5263 422.594 11.8166L421.091 13.1365ZM422.104 14.9347C422.342 15.6343 422.466 16.4073 422.466 17.2617H424.466C424.466 16.2118 424.314 15.2189 423.998 14.2909L422.104 14.9347ZM422.466 17.2617V17.5425H424.466V17.2617H422.466ZM422.466 17.5425C422.466 18.3969 422.342 19.1699 422.104 19.8695L423.998 20.5133C424.314 19.5853 424.466 18.5924 424.466 17.5425H422.466ZM422.104 19.8695C421.867 20.5689 421.526 21.1661 421.087 21.6727L422.598 22.9826C423.217 22.2684 423.682 21.4415 423.998 20.5133L422.104 19.8695ZM421.086 21.6735C420.661 22.1654 420.146 22.552 419.532 22.8357L420.37 24.6516C421.236 24.2517 421.983 23.6943 422.599 22.9818L421.086 21.6735ZM419.536 22.8336C418.952 23.0996 418.267 23.2441 417.46 23.2441V25.2441C418.509 25.2441 419.484 25.055 420.365 24.6537L419.536 22.8336ZM417.46 23.2441C416.654 23.2441 415.963 23.0997 415.369 22.8319L414.547 24.6554C415.434 25.0549 416.411 25.2441 417.46 25.2441V23.2441ZM415.377 22.8357C414.761 22.5514 414.24 22.163 413.805 21.6677L412.302 22.9876C412.925 23.6967 413.674 24.2523 414.539 24.6516L415.377 22.8357ZM413.814 21.6785C413.381 21.1712 413.043 20.5721 412.804 19.8695L410.911 20.5133C411.225 21.4384 411.684 22.2634 412.293 22.9768L413.814 21.6785ZM412.804 19.8695C412.566 19.1699 412.442 18.3969 412.442 17.5425H410.442C410.442 18.5924 410.595 19.5853 410.911 20.5133L412.804 19.8695ZM412.701 17.2617V17.5425H414.701V17.2617H412.701ZM412.701 17.5425C412.701 18.2803 412.787 18.9892 412.966 19.6653L414.9 19.155C414.769 18.6593 414.701 18.123 414.701 17.5425H412.701ZM412.967 19.6687C413.148 20.3462 413.425 20.9658 413.806 21.5167L415.451 20.3798C415.213 20.0355 415.027 19.6297 414.899 19.1516L412.967 19.6687ZM413.813 21.5267C414.216 22.0948 414.723 22.5513 415.329 22.8858L416.296 21.1347C415.958 20.9483 415.676 20.6968 415.444 20.3698L413.813 21.5267ZM415.341 22.8922C415.981 23.2342 416.698 23.3887 417.46 23.3887V21.3887C416.97 21.3887 416.588 21.2908 416.284 21.1283L415.341 22.8922ZM417.46 23.3887C418.217 23.3887 418.928 23.2334 419.562 22.8887L418.606 21.1318C418.312 21.2916 417.941 21.3887 417.46 21.3887V23.3887ZM419.567 22.8858C420.176 22.55 420.682 22.0903 421.079 21.5167L419.433 20.3798C419.211 20.7013 418.936 20.9497 418.601 21.1347L419.567 22.8858ZM421.079 21.5167C421.459 20.9658 421.736 20.3462 421.918 19.6687L419.986 19.1516C419.858 19.6297 419.671 20.0355 419.433 20.3798L421.079 21.5167ZM421.915 19.6778C422.104 18.9977 422.196 18.2846 422.196 17.5425H420.196C420.196 18.1187 420.125 18.6507 419.988 19.1425L421.915 19.6778ZM422.196 17.5425V17.2617H420.196V17.5425H422.196ZM422.196 17.2617C422.196 16.5267 422.104 15.8205 421.914 15.1473L419.989 15.6896C420.125 16.172 420.196 16.6947 420.196 17.2617H422.196ZM421.919 15.1633C421.737 14.4735 421.453 13.8448 421.059 13.2897L419.428 14.4466C419.669 14.7867 419.858 15.1915 419.985 15.6736L421.919 15.1633ZM421.071 13.3067C420.675 12.7235 420.168 12.2566 419.555 11.9184L418.589 13.6695C418.92 13.8521 419.193 14.1014 419.416 14.4297L421.071 13.3067ZM419.561 11.922C418.923 11.5638 418.203 11.4033 417.436 11.4033V13.4033C417.922 13.4033 418.293 13.5033 418.582 13.6659L419.561 11.922ZM417.436 11.4033C416.674 11.4033 415.958 11.565 415.317 11.9184L416.283 13.6695C416.587 13.5021 416.961 13.4033 417.436 13.4033V11.4033ZM415.311 11.922C414.709 12.2595 414.208 12.7227 413.808 13.2967L415.449 14.4397C415.684 14.1022 415.963 13.8492 416.29 13.6659L415.311 11.922ZM413.806 13.2997C413.424 13.8528 413.147 14.4781 412.966 15.1633L414.9 15.6736C415.028 15.187 415.215 14.7787 415.451 14.4366L413.806 13.2997ZM412.967 15.1599C412.788 15.8291 412.701 16.531 412.701 17.2617H414.701C414.701 16.6903 414.768 16.1634 414.899 15.677L412.967 15.1599ZM428.557 12.8672H429.557V12.8525L429.556 12.8378L428.557 12.8672ZM428.557 24V25H429.557V24H428.557ZM426.298 24H425.298V25H426.298V24ZM426.298 10.792V9.79199H425.298V10.792H426.298ZM428.496 10.792L429.495 10.7626L429.467 9.79199H428.496V10.792ZM432.683 10.7188L433.683 10.7246L433.686 10.1025L433.13 9.82432L432.683 10.7188ZM432.67 12.8184L432.458 13.7955L433.663 14.0575L433.67 12.8242L432.67 12.8184ZM432.133 12.7451L432.034 13.7402L432.06 13.7427L432.086 13.744L432.133 12.7451ZM428.52 14.6982L427.591 14.3268L427.588 14.3367L428.52 14.6982ZM428.215 16.0166L428.715 16.8828L429.158 16.627L429.21 16.1178L428.215 16.0166ZM427.58 16.3828H426.58V18.1142L428.08 17.249L427.58 16.3828ZM427.812 14.1367L426.838 13.9102L426.836 13.921L427.812 14.1367ZM428.557 12.2812L429.406 12.8089L429.41 12.8032L428.557 12.2812ZM429.826 11.0117L430.333 11.874L430.337 11.8716L429.826 11.0117ZM432.243 10.6089L432.054 11.5909L432.073 11.5944L432.091 11.5973L432.243 10.6089ZM427.557 12.8672V24H429.557V12.8672H427.557ZM428.557 23H426.298V25H428.557V23ZM427.298 24V10.792H425.298V24H427.298ZM426.298 11.792H428.496V9.79199H426.298V11.792ZM427.496 10.8214L427.557 12.8966L429.556 12.8378L429.495 10.7626L427.496 10.8214ZM431.683 10.7129L431.67 12.8125L433.67 12.8242L433.683 10.7246L431.683 10.7129ZM432.883 11.8412C432.648 11.7901 432.413 11.7573 432.181 11.7462L432.086 13.744C432.195 13.7492 432.319 13.7653 432.458 13.7955L432.883 11.8412ZM432.233 11.7501C432.029 11.7297 431.808 11.7207 431.572 11.7207V13.7207C431.759 13.7207 431.912 13.728 432.034 13.7402L432.233 11.7501ZM431.572 11.7207C430.948 11.7207 430.355 11.8182 429.814 12.039L430.57 13.8907C430.827 13.786 431.154 13.7207 431.572 13.7207V11.7207ZM429.814 12.039C429.293 12.2519 428.833 12.5581 428.452 12.9618L429.906 14.3351C430.078 14.1529 430.294 14.0033 430.57 13.8907L429.814 12.039ZM428.452 12.9618C428.082 13.354 427.797 13.8134 427.592 14.3269L429.448 15.0696C429.569 14.7693 429.723 14.5288 429.906 14.3351L428.452 12.9618ZM427.588 14.3367C427.397 14.829 427.277 15.3573 427.22 15.9154L429.21 16.1178C429.251 15.7156 429.334 15.365 429.452 15.0598L427.588 14.3367ZM427.715 15.1504L427.08 15.5166L428.08 17.249L428.715 16.8828L427.715 15.1504ZM428.58 16.3828C428.58 15.6498 428.651 14.9741 428.788 14.3524L426.836 13.921C426.664 14.6991 426.58 15.5208 426.58 16.3828H428.58ZM428.786 14.3632C428.927 13.7556 429.137 13.2414 429.406 12.8089L427.707 11.7536C427.309 12.3953 427.022 13.1181 426.838 13.9102L428.786 14.3632ZM429.41 12.8032C429.664 12.3873 429.972 12.0857 430.333 11.874L429.32 10.1494C428.655 10.54 428.117 11.0847 427.704 11.7593L429.41 12.8032ZM430.337 11.8716C430.677 11.6696 431.112 11.5479 431.682 11.5479V9.54785C430.819 9.54785 430.017 9.73538 429.316 10.1519L430.337 11.8716ZM431.682 11.5479C431.764 11.5479 431.886 11.5586 432.054 11.5909L432.432 9.62688C432.177 9.57781 431.924 9.54785 431.682 9.54785V11.5479ZM432.091 11.5973C432.178 11.6106 432.235 11.6224 432.269 11.6309C432.286 11.635 432.291 11.637 432.288 11.636C432.286 11.6354 432.266 11.6286 432.235 11.6132L433.13 9.82432C432.895 9.70676 432.608 9.6533 432.395 9.62051L432.091 11.5973ZM437.504 23.7803L437.11 24.6995L437.123 24.7045L437.504 23.7803ZM435.588 22.4497L434.855 23.1302L434.86 23.1357L435.588 22.4497ZM434.367 20.4233L433.428 20.7659L434.367 20.4233ZM434.416 14.4785L435.351 14.8326L435.352 14.8296L434.416 14.4785ZM435.71 12.3301L434.978 11.6488L435.71 12.3301ZM442.155 11.0361L441.725 11.939L441.729 11.941L442.155 11.0361ZM443.852 12.4033L443.052 13.0033L443.056 13.0087L443.852 12.4033ZM444.829 14.4541L443.863 14.713L443.863 14.7155L444.829 14.4541ZM445.146 18.0308V19.0308H446.146V18.0308H445.146ZM435.283 18.0308H434.283V19.0308H435.283V18.0308ZM435.283 16.1875V15.1875H434.283V16.1875H435.283ZM442.888 16.1875V17.1875H443.888V16.1875H442.888ZM442.888 16.0166H443.888V15.9888L443.886 15.9611L442.888 16.0166ZM442.521 14.3076L441.583 14.6527L441.587 14.6648L442.521 14.3076ZM438.298 12.7329L438.738 13.6307L438.745 13.6274L438.752 13.624L438.298 12.7329ZM436.467 19.6299L435.511 19.925L435.514 19.9334L435.517 19.9419L436.467 19.6299ZM437.236 21.0703L436.456 21.6969L436.464 21.706L437.236 21.0703ZM438.469 22.0469L438.028 22.9443L438.034 22.9472L438.469 22.0469ZM442.155 21.9126L441.648 21.0507L442.155 21.9126ZM443.608 20.6064L444.23 19.8235L443.431 19.1883L442.812 20.0008L443.608 20.6064ZM444.975 21.6929L445.81 22.2439L446.314 21.4797L445.597 20.91L444.975 21.6929ZM442.265 23.8779L441.91 22.9431L441.906 22.9446L442.265 23.8779ZM440.007 23.2441C439.201 23.2441 438.499 23.1089 437.886 22.856L437.123 24.7045C438.008 25.0701 438.974 25.2441 440.007 25.2441V23.2441ZM437.898 22.8611C437.28 22.5961 436.756 22.2307 436.315 21.7637L434.86 23.1357C435.494 23.8081 436.248 24.3296 437.11 24.6994L437.898 22.8611ZM436.321 21.7693C435.889 21.304 435.549 20.7456 435.307 20.0808L433.428 20.7659C433.755 21.6636 434.229 22.4561 434.855 23.1302L436.321 21.7693ZM435.307 20.0808C435.066 19.4213 434.94 18.6842 434.94 17.8599H432.94C432.94 18.891 433.098 19.8629 433.428 20.7659L435.307 20.0808ZM434.94 17.8599V17.3472H432.94V17.8599H434.94ZM434.94 17.3472C434.94 16.3705 435.084 15.5377 435.351 14.8326L433.481 14.1244C433.113 15.0958 432.94 16.1754 432.94 17.3472H434.94ZM435.352 14.8296C435.63 14.0898 435.997 13.49 436.442 13.0113L434.978 11.6488C434.333 12.342 433.837 13.1745 433.48 14.1274L435.352 14.8296ZM436.442 13.0113C436.899 12.5197 437.406 12.1594 437.965 11.9164L437.166 10.0826C436.341 10.4419 435.611 10.9685 434.978 11.6488L436.442 13.0113ZM437.965 11.9164C438.533 11.6691 439.113 11.5479 439.714 11.5479V9.54785C438.833 9.54785 437.982 9.72775 437.166 10.0826L437.965 11.9164ZM439.714 11.5479C440.545 11.5479 441.205 11.6912 441.725 11.939L442.585 10.1333C441.738 9.73002 440.771 9.54785 439.714 9.54785V11.5479ZM441.729 11.941C442.28 12.2001 442.715 12.5538 443.052 13.0033L444.652 11.8033C444.11 11.081 443.414 10.5232 442.581 10.1313L441.729 11.941ZM443.056 13.0087C443.408 13.4709 443.681 14.0333 443.863 14.713L445.795 14.1952C445.554 13.2961 445.175 12.4913 444.648 11.798L443.056 13.0087ZM443.863 14.7155C444.049 15.4002 444.146 16.1655 444.146 17.0176H446.146C446.146 16.0142 446.032 15.0705 445.794 14.1927L443.863 14.7155ZM444.146 17.0176V18.0308H446.146V17.0176H444.146ZM445.146 17.0308H435.283V19.0308H445.146V17.0308ZM436.283 18.0308V16.1875H434.283V18.0308H436.283ZM435.283 17.1875H442.888V15.1875H435.283V17.1875ZM443.888 16.1875V16.0166H441.888V16.1875H443.888ZM443.886 15.9611C443.848 15.2709 443.704 14.5995 443.456 13.9505L441.587 14.6648C441.762 15.1225 441.862 15.5904 441.889 16.0721L443.886 15.9611ZM443.46 13.9626C443.196 13.2431 442.764 12.6349 442.17 12.1596L440.92 13.7213C441.221 13.9621 441.44 14.2653 441.583 14.6527L443.46 13.9626ZM442.17 12.1596C441.492 11.6171 440.635 11.4033 439.714 11.4033V13.4033C440.339 13.4033 440.703 13.5476 440.92 13.7213L442.17 12.1596ZM439.714 11.4033C439.053 11.4033 438.424 11.5463 437.844 11.8419L438.752 13.624C439.034 13.4801 439.349 13.4033 439.714 13.4033V11.4033ZM437.857 11.8351C437.268 12.1244 436.776 12.5532 436.38 13.095L437.994 14.2751C438.217 13.9705 438.465 13.7646 438.738 13.6307L437.857 11.8351ZM436.38 13.095C435.987 13.6327 435.7 14.2636 435.504 14.9657L437.43 15.505C437.575 14.9864 437.769 14.5838 437.994 14.2751L436.38 13.095ZM435.504 14.9657C435.303 15.683 435.21 16.4808 435.21 17.3472H437.21C437.21 16.6184 437.289 16.0084 437.43 15.505L435.504 14.9657ZM435.21 17.3472V17.8599H437.21V17.3472H435.21ZM435.21 17.8599C435.21 18.5784 435.309 19.2685 435.511 19.925L437.422 19.3348C437.283 18.8845 437.21 18.3946 437.21 17.8599H435.21ZM435.517 19.9419C435.73 20.5925 436.042 21.181 436.456 21.6969L438.015 20.4438C437.763 20.1295 437.561 19.7578 437.417 19.3179L435.517 19.9419ZM436.464 21.706C436.896 22.2303 437.419 22.6453 438.028 22.9443L438.91 21.1494C438.558 20.9765 438.26 20.7404 438.008 20.4346L436.464 21.706ZM438.034 22.9472C438.675 23.2575 439.381 23.4009 440.129 23.4009V21.4009C439.64 21.4009 439.239 21.3083 438.904 21.1465L438.034 22.9472ZM440.129 23.4009C441.062 23.4009 441.922 23.2099 442.662 22.7745L441.648 21.0507C441.282 21.2663 440.791 21.4009 440.129 21.4009V23.4009ZM442.662 22.7745C443.335 22.3788 443.915 21.8537 444.404 21.2121L442.812 20.0008C442.47 20.4497 442.082 20.7953 441.648 21.0507L442.662 22.7745ZM442.986 21.3894L444.353 22.4758L445.597 20.91L444.23 19.8235L442.986 21.3894ZM444.141 21.1418C443.91 21.4914 443.608 21.8377 443.224 22.1784L444.553 23.6732C445.049 23.2326 445.471 22.757 445.81 22.2439L444.141 21.1418ZM443.224 22.1784C442.89 22.4758 442.458 22.7349 441.91 22.9431L442.62 24.8128C443.358 24.5327 444.009 24.157 444.553 23.6732L443.224 22.1784ZM441.906 22.9446C441.413 23.1342 440.788 23.2441 440.007 23.2441V25.2441C440.967 25.2441 441.848 25.1099 442.624 24.8113L441.906 22.9446Z" fill="black"/>
</svg>
