<svg width="149" height="59" viewBox="0 0 149 59" fill="none" xmlns="http://www.w3.org/2000/svg">
<rect x="7.5" y="3.5" width="131" height="55" rx="4.5" fill="#161616" stroke="white"/>
<path d="M26.2656 23.3594L30.0254 29.3535L33.7852 23.3594H36.2021L31.2607 31.1045L36.3203 39H33.8818L30.0254 32.8877L26.1689 39H23.7305L28.79 31.1045L23.8486 23.3594H26.2656ZM44.291 31.6846H40.3271L40.3057 30.0195H43.9043C44.4987 30.0195 45.0179 29.9193 45.4619 29.7188C45.9059 29.5182 46.2497 29.2318 46.4932 28.8594C46.7438 28.4798 46.8691 28.0286 46.8691 27.5059C46.8691 26.9329 46.7581 26.4674 46.5361 26.1094C46.3213 25.7441 45.9883 25.4792 45.5371 25.3145C45.0931 25.1426 44.5273 25.0566 43.8398 25.0566H40.7891V39H38.7158V23.3594H43.8398C44.6419 23.3594 45.3581 23.4417 45.9883 23.6064C46.6185 23.764 47.152 24.0146 47.5889 24.3584C48.0329 24.695 48.3695 25.1247 48.5986 25.6475C48.8278 26.1702 48.9424 26.7969 48.9424 27.5273C48.9424 28.1719 48.7777 28.7555 48.4482 29.2783C48.1188 29.7939 47.6605 30.2165 47.0732 30.5459C46.4932 30.8753 45.8128 31.0866 45.0322 31.1797L44.291 31.6846ZM44.1943 39H39.5107L40.6816 37.3135H44.1943C44.8532 37.3135 45.4118 37.1989 45.8701 36.9697C46.3356 36.7406 46.6901 36.4183 46.9336 36.0029C47.1771 35.5804 47.2988 35.0827 47.2988 34.5098C47.2988 33.9297 47.195 33.4284 46.9873 33.0059C46.7796 32.5833 46.4538 32.2575 46.0098 32.0283C45.5658 31.7992 44.9928 31.6846 44.291 31.6846H41.3369L41.3584 30.0195H45.3975L45.8379 30.6211C46.5898 30.6855 47.2272 30.9004 47.75 31.2656C48.2728 31.6237 48.6702 32.082 48.9424 32.6406C49.2217 33.1992 49.3613 33.8151 49.3613 34.4883C49.3613 35.4622 49.1465 36.2858 48.7168 36.959C48.2943 37.625 47.6963 38.1335 46.9229 38.4844C46.1494 38.8281 45.2399 39 44.1943 39ZM64.4648 30.6855V31.6738C64.4648 32.8483 64.318 33.901 64.0244 34.832C63.7308 35.763 63.3083 36.5544 62.7568 37.2061C62.2054 37.8577 61.543 38.3555 60.7695 38.6992C60.0033 39.043 59.1439 39.2148 58.1914 39.2148C57.2676 39.2148 56.4189 39.043 55.6455 38.6992C54.8792 38.3555 54.2132 37.8577 53.6475 37.2061C53.0889 36.5544 52.6556 35.763 52.3477 34.832C52.0397 33.901 51.8857 32.8483 51.8857 31.6738V30.6855C51.8857 29.5111 52.0361 28.4619 52.3369 27.5381C52.6449 26.6071 53.0781 25.8158 53.6367 25.1641C54.1953 24.5052 54.8577 24.0039 55.624 23.6602C56.3975 23.3164 57.2461 23.1445 58.1699 23.1445C59.1224 23.1445 59.9818 23.3164 60.748 23.6602C61.5215 24.0039 62.1839 24.5052 62.7354 25.1641C63.2939 25.8158 63.7201 26.6071 64.0137 27.5381C64.3145 28.4619 64.4648 29.5111 64.4648 30.6855ZM62.4131 31.6738V30.6641C62.4131 29.7331 62.3164 28.9095 62.123 28.1934C61.9368 27.4772 61.6611 26.8757 61.2959 26.3887C60.9307 25.9017 60.4831 25.5329 59.9531 25.2822C59.4303 25.0316 58.8359 24.9062 58.1699 24.9062C57.5254 24.9062 56.9417 25.0316 56.4189 25.2822C55.9033 25.5329 55.4593 25.9017 55.0869 26.3887C54.7217 26.8757 54.4388 27.4772 54.2383 28.1934C54.0378 28.9095 53.9375 29.7331 53.9375 30.6641V31.6738C53.9375 32.612 54.0378 33.4427 54.2383 34.166C54.4388 34.8822 54.7253 35.4873 55.0977 35.9814C55.4772 36.4684 55.9248 36.8372 56.4404 37.0879C56.9632 37.3385 57.5469 37.4639 58.1914 37.4639C58.8646 37.4639 59.4626 37.3385 59.9854 37.0879C60.5081 36.8372 60.9486 36.4684 61.3066 35.9814C61.6719 35.4873 61.9476 34.8822 62.1338 34.166C62.32 33.4427 62.4131 32.612 62.4131 31.6738ZM68.6758 23.3594L72.4355 29.3535L76.1953 23.3594H78.6123L73.6709 31.1045L78.7305 39H76.292L72.4355 32.8877L68.5791 39H66.1406L71.2002 31.1045L66.2588 23.3594H68.6758ZM88.9678 30.2021H90.3857C91.0804 30.2021 91.6533 30.0876 92.1045 29.8584C92.5628 29.6221 92.903 29.3034 93.125 28.9023C93.3542 28.4941 93.4688 28.0358 93.4688 27.5273C93.4688 26.9258 93.3685 26.4209 93.168 26.0127C92.9674 25.6045 92.6667 25.2965 92.2656 25.0889C91.8646 24.8812 91.3561 24.7773 90.7402 24.7773C90.1816 24.7773 89.6875 24.8883 89.2578 25.1104C88.8353 25.3252 88.5023 25.6331 88.2588 26.0342C88.0225 26.4352 87.9043 26.9079 87.9043 27.4521H85.917C85.917 26.6572 86.1175 25.9339 86.5186 25.2822C86.9196 24.6305 87.4818 24.1113 88.2051 23.7246C88.9355 23.3379 89.7806 23.1445 90.7402 23.1445C91.6855 23.1445 92.5127 23.3128 93.2217 23.6494C93.9307 23.9788 94.4821 24.473 94.876 25.1318C95.2699 25.7835 95.4668 26.5964 95.4668 27.5703C95.4668 27.9642 95.3737 28.3867 95.1875 28.8379C95.0085 29.2819 94.7256 29.6973 94.3389 30.084C93.9593 30.4707 93.4652 30.7894 92.8564 31.04C92.2477 31.2835 91.5173 31.4053 90.665 31.4053H88.9678V30.2021ZM88.9678 31.835V30.6426H90.665C91.6605 30.6426 92.484 30.7607 93.1357 30.9971C93.7874 31.2334 94.2995 31.5485 94.6719 31.9424C95.0514 32.3363 95.3164 32.7695 95.4668 33.2422C95.6243 33.7077 95.7031 34.1732 95.7031 34.6387C95.7031 35.3691 95.5778 36.0173 95.3271 36.583C95.0837 37.1488 94.7363 37.6286 94.2852 38.0225C93.8411 38.4163 93.3184 38.7135 92.7168 38.9141C92.1152 39.1146 91.46 39.2148 90.751 39.2148C90.0706 39.2148 89.4297 39.1182 88.8281 38.9248C88.2337 38.7314 87.7074 38.4521 87.249 38.0869C86.7907 37.7145 86.4326 37.2598 86.1748 36.7227C85.917 36.1784 85.7881 35.5589 85.7881 34.8643H87.7754C87.7754 35.4085 87.8936 35.8848 88.1299 36.293C88.3734 36.7012 88.7171 37.0199 89.1611 37.249C89.6123 37.471 90.1423 37.582 90.751 37.582C91.3597 37.582 91.8825 37.4782 92.3193 37.2705C92.7633 37.0557 93.1035 36.7334 93.3398 36.3037C93.5833 35.874 93.7051 35.3333 93.7051 34.6816C93.7051 34.0299 93.569 33.4964 93.2969 33.0811C93.0247 32.6585 92.638 32.347 92.1367 32.1465C91.6426 31.9388 91.0589 31.835 90.3857 31.835H88.9678ZM106.069 23.3379H106.241V25.0244H106.069C105.017 25.0244 104.136 25.1963 103.427 25.54C102.718 25.8766 102.156 26.3314 101.74 26.9043C101.325 27.4701 101.024 28.1074 100.838 28.8164C100.659 29.5254 100.569 30.2451 100.569 30.9756V33.2744C100.569 33.9691 100.652 34.585 100.816 35.1221C100.981 35.652 101.207 36.0996 101.493 36.4648C101.78 36.8301 102.102 37.1058 102.46 37.292C102.825 37.4782 103.205 37.5713 103.599 37.5713C104.057 37.5713 104.465 37.4854 104.823 37.3135C105.181 37.1344 105.482 36.8874 105.726 36.5723C105.976 36.25 106.166 35.8704 106.295 35.4336C106.424 34.9967 106.488 34.5169 106.488 33.9941C106.488 33.5286 106.431 33.0811 106.316 32.6514C106.202 32.2145 106.026 31.8278 105.79 31.4912C105.554 31.1475 105.257 30.8789 104.898 30.6855C104.548 30.485 104.129 30.3848 103.642 30.3848C103.09 30.3848 102.575 30.5208 102.095 30.793C101.622 31.0579 101.232 31.4089 100.924 31.8457C100.623 32.2754 100.451 32.7445 100.408 33.2529L99.3555 33.2422C99.4557 32.4401 99.6419 31.7562 99.9141 31.1904C100.193 30.6175 100.537 30.152 100.945 29.7939C101.361 29.4287 101.823 29.1637 102.331 28.999C102.847 28.8271 103.391 28.7412 103.964 28.7412C104.744 28.7412 105.418 28.888 105.983 29.1816C106.549 29.4753 107.015 29.8691 107.38 30.3633C107.745 30.8503 108.014 31.4017 108.186 32.0176C108.365 32.6263 108.454 33.2529 108.454 33.8975C108.454 34.6351 108.35 35.3262 108.143 35.9707C107.935 36.6152 107.623 37.181 107.208 37.668C106.8 38.1549 106.295 38.5345 105.693 38.8066C105.092 39.0788 104.394 39.2148 103.599 39.2148C102.754 39.2148 102.016 39.043 101.386 38.6992C100.756 38.3483 100.233 37.8828 99.8174 37.3027C99.402 36.7227 99.0905 36.0781 98.8828 35.3691C98.6751 34.6602 98.5713 33.9404 98.5713 33.21V32.2754C98.5713 31.1725 98.6823 30.0911 98.9043 29.0312C99.1263 27.9714 99.5094 27.0117 100.054 26.1523C100.605 25.293 101.368 24.609 102.342 24.1006C103.316 23.5921 104.558 23.3379 106.069 23.3379ZM120.636 29.9336V32.3184C120.636 33.6003 120.521 34.6816 120.292 35.5625C120.063 36.4434 119.733 37.1523 119.304 37.6895C118.874 38.2266 118.355 38.6169 117.746 38.8604C117.145 39.0967 116.464 39.2148 115.705 39.2148C115.104 39.2148 114.549 39.1396 114.04 38.9893C113.532 38.8389 113.073 38.599 112.665 38.2695C112.264 37.9329 111.92 37.4961 111.634 36.959C111.347 36.4219 111.129 35.7702 110.979 35.0039C110.828 34.2376 110.753 33.3424 110.753 32.3184V29.9336C110.753 28.6517 110.868 27.5775 111.097 26.7109C111.333 25.8444 111.666 25.1497 112.096 24.627C112.525 24.097 113.041 23.7174 113.643 23.4883C114.251 23.2591 114.932 23.1445 115.684 23.1445C116.292 23.1445 116.851 23.2197 117.359 23.3701C117.875 23.5133 118.333 23.7461 118.734 24.0684C119.135 24.3835 119.476 24.806 119.755 25.3359C120.041 25.8587 120.26 26.4997 120.41 27.2588C120.561 28.0179 120.636 28.9095 120.636 29.9336ZM118.638 32.6406V29.6006C118.638 28.8988 118.595 28.2829 118.509 27.7529C118.43 27.2158 118.312 26.7575 118.154 26.3779C117.997 25.9984 117.796 25.6904 117.553 25.4541C117.316 25.2178 117.041 25.0459 116.726 24.9385C116.418 24.8239 116.07 24.7666 115.684 24.7666C115.211 24.7666 114.792 24.8561 114.427 25.0352C114.062 25.207 113.754 25.4827 113.503 25.8623C113.259 26.2419 113.073 26.7396 112.944 27.3555C112.815 27.9714 112.751 28.7197 112.751 29.6006V32.6406C112.751 33.3424 112.79 33.9619 112.869 34.499C112.955 35.0361 113.08 35.5016 113.245 35.8955C113.41 36.2822 113.61 36.6009 113.847 36.8516C114.083 37.1022 114.355 37.2884 114.663 37.4102C114.978 37.5247 115.326 37.582 115.705 37.582C116.192 37.582 116.618 37.4889 116.983 37.3027C117.349 37.1165 117.653 36.8265 117.896 36.4326C118.147 36.0316 118.333 35.5195 118.455 34.8965C118.577 34.2663 118.638 33.5143 118.638 32.6406Z" fill="white"/>
</svg>
